<svg width="33" height="34" viewBox="0 0 33 34" fill="none" xmlns="http://www.w3.org/2000/svg">
<g filter="url(#filter0_d_167_2235)">
<path d="M13.2045 14.3755L13.5293 14.9439L13.9922 14.481L18.4814 9.99184L18.9442 9.52895L18.3759 9.20417C17.8121 8.882 17.1684 8.70798 16.4996 8.70798C14.4092 8.70798 12.7084 10.4088 12.7084 12.4992C12.7084 13.168 12.8824 13.8117 13.2045 14.3755ZM13.5573 15.8138C13.4617 15.8138 13.3702 15.7802 13.2944 15.7044C12.4344 14.8444 11.9639 13.7039 11.9639 12.4992C11.9639 9.99584 13.9962 7.96349 16.4996 7.96349C17.7043 7.96349 18.8448 8.43405 19.7048 9.29405C19.7749 9.36417 19.8142 9.45839 19.8142 9.55688C19.8142 9.65536 19.7749 9.74959 19.7048 9.81971L13.8201 15.7044C13.7443 15.7802 13.6528 15.8138 13.5573 15.8138Z" fill="#292D32" stroke="black"/>
<path d="M8.8106 19.4802L8.81207 19.4815C8.87876 19.5386 8.97073 19.5704 9.05654 19.5704C9.16207 19.5704 9.26061 19.5246 9.32185 19.4502L9.32564 19.4456L9.32567 19.4456C9.46238 19.2836 9.44217 19.0488 9.28722 18.913C8.14216 17.9245 7.11153 16.7123 6.21657 15.3161C5.71503 14.5337 5.48333 13.4991 5.48333 12.4993C5.48333 11.4999 5.71492 10.4654 6.2162 9.68311C8.79455 5.63685 12.53 3.25361 16.4996 3.25361C18.793 3.25361 21.0604 4.0512 23.0465 5.55283L23.0469 5.55312C23.2055 5.67333 23.4397 5.64399 23.5675 5.47529C23.6876 5.3168 23.6585 5.08301 23.4903 4.9551C21.3596 3.35166 18.9401 2.50912 16.4996 2.50912C12.3473 2.50912 8.362 4.94526 5.59355 9.27943L8.8106 19.4802ZM8.8106 19.4802C7.60795 18.4574 6.52399 17.1943 5.59504 15.7216L5.59505 15.7216M8.8106 19.4802L5.59505 15.7216M5.59505 15.7216L5.59281 15.7181M5.59505 15.7216L5.59281 15.7181M5.59281 15.7181C5.03938 14.8566 4.74756 13.6942 4.74756 12.5037M5.59281 15.7181L4.74756 12.5037M4.74756 12.5037C4.74756 11.3134 5.03932 10.1474 5.59351 9.27949L4.74756 12.5037Z" fill="#292D32" stroke="black"/>
<path d="M12.1834 21.5988L12.1823 21.5983C11.9941 21.5191 11.9053 21.3001 11.9839 21.1134C12.063 20.9254 12.2817 20.8366 12.4682 20.9148C13.7605 21.4633 15.1175 21.745 16.4891 21.745C20.4588 21.745 24.1942 19.3618 26.7726 15.3155C27.2739 14.5332 27.5055 13.4988 27.5055 12.4993C27.5055 11.5002 27.274 10.4661 26.7731 9.68389C26.4019 9.09732 25.9949 8.53493 25.5643 8.00834C25.4412 7.85624 25.4557 7.62126 25.6234 7.47661C25.7841 7.34911 26.0134 7.36917 26.15 7.53547C26.5924 8.08008 27.022 8.66827 27.4052 9.27676L27.4051 9.27677L27.4076 9.28061C27.961 10.1421 28.2529 11.3045 28.2529 12.495C28.2529 13.6853 27.9611 14.8512 27.4069 15.7192C24.6384 20.0534 20.6532 22.4895 16.5007 22.4895C15.0231 22.4895 13.5774 22.1899 12.1834 21.5988Z" fill="#292D32" stroke="black"/>
<path d="M16.9319 16.6606L16.9319 16.6603C16.8926 16.4588 17.0232 16.2712 17.2231 16.2371L17.2231 16.2371L17.2284 16.2361C18.7113 15.9665 19.9407 14.7382 20.212 13.2557C20.2521 13.057 20.4398 12.9228 20.6542 12.9565C20.8639 13.0005 20.9896 13.1955 20.9513 13.3922L20.9504 13.3971C20.6202 15.1817 19.2071 16.6035 17.4403 16.9608C17.4064 16.9596 17.3776 16.9606 17.3554 16.9618C17.3421 16.9626 17.3201 16.9642 17.3125 16.9647C17.3111 16.9649 17.3101 16.9649 17.3098 16.9649C17.3043 16.9653 17.3018 16.9654 17.3012 16.9654C17.127 16.9652 16.9664 16.8376 16.9319 16.6606Z" fill="#292D32" stroke="black"/>
<path d="M13.8197 15.1789L13.8198 15.1789C13.9618 15.3209 13.9618 15.5625 13.8198 15.7045L13.8197 15.7046L5.13217 24.3921C5.05643 24.4679 4.96485 24.5015 4.86934 24.5015C4.77382 24.5015 4.68224 24.4679 4.6065 24.3921C4.4645 24.2501 4.4645 24.0085 4.6065 23.8664L13.2941 15.1789C13.4361 15.0369 13.6777 15.0369 13.8197 15.1789Z" fill="#292D32" stroke="black"/>
<path d="M19.4431 9.9291C19.3476 9.9291 19.256 9.89543 19.1802 9.81973C19.0382 9.67773 19.0382 9.43607 19.1802 9.29407L27.8678 0.606504C28.0098 0.464499 28.2515 0.464499 28.3935 0.606504C28.5355 0.74851 28.5355 0.990165 28.3935 1.13217L19.7059 9.81968C19.7059 9.8197 19.7059 9.81972 19.7059 9.81973C19.6302 9.89543 19.5386 9.9291 19.4431 9.9291Z" fill="#292D32" stroke="black"/>
</g>
<defs>
<filter id="filter0_d_167_2235" x="0" y="0" width="33" height="33.0015" filterUnits="userSpaceOnUse" color-interpolation-filters="sRGB">
<feFlood flood-opacity="0" result="BackgroundImageFix"/>
<feColorMatrix in="SourceAlpha" type="matrix" values="0 0 0 0 0 0 0 0 0 0 0 0 0 0 0 0 0 0 127 0" result="hardAlpha"/>
<feOffset dy="4"/>
<feGaussianBlur stdDeviation="2"/>
<feComposite in2="hardAlpha" operator="out"/>
<feColorMatrix type="matrix" values="0 0 0 0 0 0 0 0 0 0 0 0 0 0 0 0 0 0 0.25 0"/>
<feBlend mode="normal" in2="BackgroundImageFix" result="effect1_dropShadow_167_2235"/>
<feBlend mode="normal" in="SourceGraphic" in2="effect1_dropShadow_167_2235" result="shape"/>
</filter>
</defs>
</svg>
